<?xml version="1.0" encoding="UTF-8" ?>
<!DOCTYPE svg PUBLIC "-//W3C//DTD SVG 1.1//EN" "http://www.w3.org/Graphics/SVG/1.1/DTD/svg11.dtd">
<svg viewBox="20 0 500 270" version="1.1" xmlns="http://www.w3.org/2000/svg">
<g id="#bf7733ff">
<path fill="#bf7733" opacity="1.00" d=" M 201.69 0.00 L 378.23 0.00 C 383.54 2.07 389.15 4.61 392.09 9.81 C 395.56 14.68 394.76 20.97 394.34 26.58 C 392.15 33.79 385.49 39.74 377.91 40.54 C 308.01 40.73 238.09 40.35 168.19 40.72 C 173.85 32.01 179.79 23.45 186.80 15.75 C 191.30 10.07 197.08 5.58 201.69 0.00 Z" />
<path fill="#bf7733" opacity="1.00" d=" M 159.23 57.30 C 215.48 57.32 271.74 57.32 328.00 57.30 C 333.28 57.05 338.94 57.40 343.32 60.72 C 351.47 65.88 354.28 77.11 350.73 85.84 C 347.58 92.17 341.30 97.48 334.02 97.71 C 271.13 97.81 208.23 97.58 145.34 97.82 C 148.58 83.90 152.78 70.10 159.23 57.30 Z" />
<path fill="#bf7733" opacity="1.00" d=" M 142.45 114.32 C 190.63 114.06 238.82 114.28 287.00 114.21 C 290.94 114.29 294.91 113.94 298.83 114.55 C 307.57 116.60 314.77 124.82 314.79 133.95 C 315.25 140.92 311.43 147.85 305.68 151.67 C 301.46 154.82 296.05 155.03 291.00 155.16 C 245.34 155.16 199.67 155.16 154.00 155.16 C 150.15 155.18 146.28 155.33 142.46 154.68 C 142.45 148.10 141.48 141.58 141.60 135.00 C 141.42 128.09 142.48 121.23 142.45 114.32 Z" />
<path fill="#bf7733" opacity="1.00" d=" M 145.08 171.16 C 207.05 170.75 269.05 171.13 331.03 170.97 C 339.89 170.49 348.58 176.36 351.42 184.77 C 353.49 190.76 352.80 197.80 349.13 203.05 C 345.24 209.03 338.09 212.59 330.97 212.27 C 273.67 212.20 216.37 212.40 159.07 212.17 C 152.60 199.20 148.28 185.26 145.08 171.16 Z" />
<path fill="#bf7733" opacity="1.00" d=" M 167.73 228.02 C 236.83 227.93 305.94 228.04 375.04 227.97 C 382.50 227.83 389.79 232.29 393.20 238.90 C 395.96 243.97 396.30 250.20 394.45 255.62 C 391.60 263.60 383.52 269.48 374.97 269.27 C 317.98 269.34 260.98 269.27 203.99 269.30 C 201.66 269.69 200.15 267.73 198.62 266.35 C 186.78 254.97 175.81 242.37 167.73 228.02 Z" />
</g>
</svg>
